<svg height="14" viewBox="0 0 14 14" width="14" xmlns="http://www.w3.org/2000/svg"><path d="m15 21c-3.8659932 0-7-3.1340068-7-7s3.1340068-7 7-7 7 3.1340068 7 7-3.1340068 7-7 7zm0-3.4998068c-.4515492-.0002913-.902266.0387414-1.3470422.1166572.40986 1.6441292 1.0250601 2.5081983 1.3470422 2.5081983s.9371685-.8632898 1.3470422-2.507419c-.4355344-.0754372-.8866264-.1174365-1.3470422-.1174365zm2.1986569.3188667c-.2131053.8703031-.4977516 1.6029108-.8298366 2.1465563.9771337-.2252326 1.8838891-.6872935 2.6403979-1.3454837-.5650019-.3467507-1.1739482-.6161755-1.8105613-.8010726zm-4.3973138 0c-.6358664.1855954-1.2442069.4549841-1.8090028.8010726.7560314.6576972 1.6622944 1.1192423 2.6388531 1.3439252-.332878-.542087-.6152001-1.2754876-.8298366-2.1449978zm4.8157319-3.3808118c-.0169792.8453317-.0975703 1.6881859-.2410901 2.5214182.8204993.2341042 1.5834568.5833054 2.2631983 1.0281635.857748-.9944891 1.371156-2.2395389 1.4636978-3.5495817zm-8.719956 0c.09237046 1.3090377.60460089 2.5533457 1.4605808 3.5480368.6991607-.4539967 1.4629887-.7995948 2.2655497-1.0250601-.1431185-.8337953-.2234569-1.6771561-.2403382-2.5229767zm4.3607436 0c.0202333.8695102.100346 1.6464669.2177808 2.323105 1.0082542-.1796258 2.0402759-.1801534 3.0487131-.0015585.1174349-.6766381.1959891-1.4535948.2177809-2.3215465zm6.3813206-4.4253123c-.6983266.454735-1.4613327.8013662-2.2631983 1.0281771.136096.7753983.2208705 1.6254682.2410901 2.5214183h3.485806c-.092482-1.3100514-.6058971-2.555128-1.4636978-3.5495954zm-6.164319 1.2264903c-.1166556.6766381-.1944306 1.4535949-.2169879 2.3231051h3.4826889c-.0145777-.7781976-.08737-1.5542132-.2177672-2.3215466-1.0078957.1788006-2.0394422.178273-3.0471546-.0015585zm-3.1148266-1.2249318c-.85683794.9942356-1.36942791 2.2387531-1.46136009 3.5480369h3.48580599c.0202196-.8982879.1049941-1.7475785.2410901-2.5229768-.8025604-.2254553-1.5663853-.5710541-2.265536-1.0250601zm4.6399624-2.13876374c-.3219821 0-.9371685.86328983-1.3470422 2.50741904.4355343.0754372.8866264.1174348 1.3470422.1174348.461195 0 .9107286-.0419976 1.3470422-.1166556-.40986-1.64490841-1.0250601-2.5089775-1.3470422-2.5089775zm1.3688066.15943252c.332878.54364552.616745 1.27626685.8298366 2.14655632.636414-.18474784 1.2453169-.45362733 1.810575-.79951411-.7560268-.6592338-1.6629264-1.12190106-2.6404116-1.34704221zm-2.7376132 0c-.9765587.22468289-1.8828217.68622798-2.6388531 1.3439252.5641849.34725122 1.1726861.61671105 1.8090028.80107262.2146501-.86873097.4977516-1.6013523.8298503-2.14499782z" fill="#d3d3d7" transform="translate(-8 -7)"/></svg>