<svg height="24" viewBox="0 0 132 24" width="132" xmlns="http://www.w3.org/2000/svg"><g fill="#f9bf3c" fill-rule="evenodd"><path d="m125.742416 7.91173695c3.421409 0 6.201486 2.80857875 6.256746 6.29466225l.000838 1.1725951c0 .1191968-.003277.2376109-.009743.3551531l-9.00602.0003881c.167599 1.2867964 1.232286 2.2835259 2.529807 2.3107643l.402194.0005721c.92877 0 1.744118-.4967121 2.205981-1.2445911l3.718121.0000857c-.621619 2.7191973-2.986534 4.752461-5.823496 4.7995086l-.448249.0008336c-3.32637 0-6.029223-2.7305626-6.082947-6.1198104l-.000815-1.1696551c0-3.534902 2.801615-6.40050625 6.257583-6.40050625zm-39.6313631-3.91142052-.0009865 3.91087343 8.3444315.00054709v3.55583685l-8.3444315-.0003839.0009865 3.9118044c0 1.3746841 1.0895172 2.4890858 2.4335048 2.4890858 1.3258256 0 2.4040119-1.0844862 2.43291-2.4335001l.0005948-.5889612h3.4764354v.5333755c0 3.3385186-2.6459704 6.0449226-5.9099402 6.0449226-3.2313301 0-5.8569589-2.6525466-5.9091484-5.9449588l-.0007917-.0999638v-11.37867787zm-34.0690667-1.60012657v12.62322074c0 3.499553-2.7458635 6.3431273-6.1541031 6.3996488l-.1034806.0008575h-1.2167524c-3.4214083 0-6.2014859-2.8085787-6.2567453-6.2946622l-.0008384-.4614278c0-3.499553 2.7458635-6.34312725 6.1541031-6.39964878l2.7108072-.00085749v3.55583687h-2.6073266c-1.5177002 0-2.7514603 1.2434585-2.7806205 2.788688l-.0005278.4115651c0 1.5523644 1.2156923 2.8143035 2.7264169 2.8441296l1.2714838.0005399c1.5177003 0 2.7514604-1.2434586 2.7806205-2.7886881l.0005278-.0559814v-12.62322074zm19.4680381 5.51154709v7.11167365c0 1.5710676 1.2451625 2.8446695 2.7811483 2.8446695 1.5177003 0 2.7514604-1.2434586 2.7806206-2.7886881l.0005277-.0559814v-7.11167365h3.4764354v7.11167365c0 3.534902-2.8016156 6.4005063-6.2575837 6.4005063-3.4214083 0-6.2014859-2.8085787-6.2567453-6.2946622l-.0008383-.1058441v-7.11167365zm28.5067697 0v7.11167365c0 1.5710676 1.245163 2.8446695 2.781149 2.8446695 1.5177 0 2.75146-1.2434586 2.78062-2.7886881l.000528-.0559814v-7.11167365h3.476435v7.11167365c0 3.534902-2.801615 6.4005063-6.257583 6.4005063-3.4214086 0-6.2014862-2.8085787-6.2567456-6.2946622l-.0008383-.1058441v-7.11167365zm18.425108 0v3.55583685h-1.042931c-1.5177 0-2.75146 1.2434585-2.78062 2.788688l-.000528.0559814v6.9338819h-3.476435v-6.9338819c0-3.499553 2.745863-6.34312724 6.154103-6.39964877l.10348-.00085748zm-52.4941743-5.51154709v3.55583683l-8.3436613-.00083683v3.912l8.3436613.00025734v3.5558368l-8.3436613-.0000941.0002164 7.8229352h-3.4764354v-18.84593524zm59.7946883 9.06738394c-1.166943 0-2.166023.7351204-2.578746 1.7773081l5.157511.0000459c-.412712-1.0422121-1.411805-1.777354-2.578765-1.777354z" fill-rule="nonzero"/><path d="m24.8788906 0c4.772893 0 8.6420872 3.86919422 8.6420872 8.64208717 0 .20782836-.0074969.4155891-.0224761.62287695l-.0318155.44027532c-.3934189 5.44428156-3.7152754 10.24431286-8.6718398 12.53067446-5.0979789 2.3515931-10.9703078 2.3515931-16.06828672 0-4.95656446-2.2863616-8.27842093-7.0863929-8.67183979-12.53067446l-.03181551-.44027532c-.34400544-4.76047974 3.23625438-8.89848258 7.99673412-9.24248802.20728785-.01497919.41504858-.0224761.62287694-.0224761zm-5.7857931 13.2025739h-4.664789c-.1508438 0-.2973906.0502426-.4165033.1427954-.2664357.2070256-.3364245.5731627-.1800672.8601328l.0605433.0923977 2.1537188 2.7717711c.0462745.0595539.0998112.1130906.1593652.1593652.3643565.2831119.8768856.2440943 1.1948117-.0740413l.075229-.0853239 2.1537187-2.7717711c.0925528-.1191126.1427955-.2656595.1427955-.4165033 0-.3749034-.3039193-.6788226-.6788227-.6788226zm-10.81287912-10.11425253c-3.28676656 0-5.9512173 2.76537715-5.9512173 6.17664275 0 3.41126558 2.66445074 6.17664278 5.9512173 6.17664278 3.28676652 0 5.95121732-2.7653772 5.95121732-6.17664278 0-3.4112656-2.6644508-6.17664275-5.95121732-6.17664275zm16.96096932 0c-3.2867666 0-5.9512173 2.76537715-5.9512173 6.17664275 0 3.41126558 2.6644507 6.17664278 5.9512173 6.17664278 3.2867665 0 5.9512173-2.7653772 5.9512173-6.17664278 0-3.4112656-2.6644508-6.17664275-5.9512173-6.17664275zm-16.96096932 2.77948924c.05419798 0 .1080883.00136716.16164069.00407007-.10430228.2337272-.16164069.49391905-.16164069.76801027 0 1.02337968.79933522 1.85299282 1.78536522 1.85299282.4826616 0 .9205893-.19878381 1.2419269-.52177348.1583124.39782902.2458774.83522812.2458774 1.29385383 0 1.87619608-1.4654479 3.39715348-3.27316952 3.39715348-1.80772161 0-3.27316951-1.5209574-3.27316951-3.39715348s1.4654479-3.39715351 3.27316951-3.39715351zm16.96096932 0c.054198 0 .1080883.00136716.1616407.00407007-.1043023.2337272-.1616407.49391905-.1616407.76801027 0 1.02337968.7993352 1.85299282 1.7853652 1.85299282.4826616 0 .9205893-.19878381 1.2419269-.52177348.1583124.39782902.2458774.83522812.2458774 1.29385383 0 1.87619608-1.4654479 3.39715348-3.2731695 3.39715348s-3.2731695-1.5209574-3.2731695-3.39715348 1.4654479-3.39715351 3.2731695-3.39715351z"/></g></svg>