<svg height="36" viewBox="0 0 36 36" width="36" xmlns="http://www.w3.org/2000/svg"><g fill="none" fill-rule="evenodd"><circle cx="18" cy="18" fill="#323045" r="18"/><path d="m11.5159167 14.6518499c.0211938-.2010653-.058549-.3997945-.214625-.5348727l-1.5866667-1.8420363v-.2749409h4.927875l3.8094167 8.0469693 3.349-8.0469693h4.6990833v.2749409l-1.357875 1.2532669c-.1169756.0860016-.1750267.227226-.150875.3670428v9.210181c-.023874.1395918.0341481.2804832.150875.3663606l1.3245833 1.2532668v.274941h-6.6654166v-.274941l1.3720416-1.2839674c.1345834-.1296248.1345834-.16783.1345834-.3670428v-7.443873l-3.8179167 9.3384414h-.5149583l-4.4447917-9.3384414v6.2588297c-.0368333.263343.0538333.5280504.2457917.7183941l1.785 2.0876411v.2742587h-5.0610417v-.274941l1.785-2.087641c.19125-.1896615.27625-.4570979.2309167-.7177119z" fill="#b3b2ba" fill-rule="nonzero"/></g></svg>