<svg height="20" viewBox="0 0 20 20" width="20" xmlns="http://www.w3.org/2000/svg"><path d="m11.7771429 12.4194286c.0952381.0952381.0952381.1874286 0 .2765714-.3687619.3687619-.9611429.5531429-1.7771429.5531429-.81599997 0-1.40838092-.184381-1.77714283-.5531429-.09523809-.0891428-.09523809-.1813333 0-.2765714.03580952-.0358095.08038095-.0537143.13371428-.0537143.05333334 0 .09790476.0179048.13371428.0537143.28571429.2918095.78857143.4377143 1.50857143.4377143.71390474 0 1.21676194-.1459048 1.50857144-.4377143.0358095-.0358095.0803809-.0537143.1337143-.0537143.0533333 0 .0979047.0179048.1337142.0537143zm-2.74171429-1.616c0 .2201905-.07733333.407619-.232.5622857s-.34209524.232-.56228572.232-.40914286-.0773333-.56685714-.232-.23657142-.3420952-.23657142-.5622857c0-.2262857.07885714-.4167619.23657142-.5714286s.34666666-.232.56685714-.232.40761905.0788572.56228572.2365714c.15466667.1577143.232.3466667.232.5668572zm3.52685709 0c0 .2201905-.0788571.407619-.2365714.5622857s-.3466666.232-.5668571.232-.4076191-.0773333-.5622857-.232c-.1546667-.1546667-.232-.3420952-.232-.5622857s.0773333-.4091429.232-.5668571c.1546666-.1577143.3420952-.2365715.5622857-.2365715s.4091428.0773334.5668571.232c.1577143.1546667.2365714.3451429.2365714.5714286zm2.2411429-1.07085716c0-.29180952-.104-.54171428-.312-.74971428s-.4609524-.312-.7588571-.312c-.2979048 0-.5539048.10704762-.768.32114286-.7740953-.53561906-1.6998096-.82133334-2.7771429-.85714286l.5622857-2.52685714 1.7862857.40228571c0 .22019048.0773334.40761906.232.56228572.1546667.15466667.3420953.232.5622858.232.2201904 0 .4091428-.07885714.5668571-.23657142s.2365714-.34666666.2365714-.56685714-.0788571-.40914286-.2365714-.56685714-.3466667-.23657142-.5668571-.23657142c-.3215238 0-.5596191.14895238-.7142858.44685714l-1.9737142-.43771428c-.1127619-.02971428-.1870477.01790476-.2228572.14285714l-.61599998 2.78628572c-1.07123809.04190476-1.99085714.33066666-2.75885714.86628572-.208-.22019048-.46704762-.33028572-.77714286-.33028572-.29790476 0-.55085714.104-.75885714.312s-.312.45790476-.312.74971428c0 .208.0552381.39847617.16571429.57142857.11047618.1729524.25790476.304.44228571.3931429-.03580952.1607619-.05371428.327619-.05371428.5005714 0 .8449524.41676191 1.568 1.25028572 2.1691428.83352381.6011429 1.83657143.9017143 3.00914288.9017143 1.1786666 0 2.1847619-.3005714 3.0182857-.9017143.8335238-.6011428 1.2502857-1.3241904 1.2502857-2.1691428 0-.1904762-.0209524-.36-.0628571-.5085714.1782857-.0891429.3211428-.2186667.4285714-.3885715.1074286-.1699047.1611429-.3588571.1611429-.5668571zm3.1965714.26742856c0 1.0834286-.2114285 2.1192381-.6342857 3.1074286-.4228571.9881905-.9912381 1.8392381-1.7051428 2.5531429-.7139048.7139047-1.5649524 1.2822857-2.5531429 1.7051428-.9881905.4228572-2.024.6342857-3.1074286.6342857-1.08342856 0-2.11923808-.2114285-3.10742856-.6342857-.98819048-.4228571-1.8392381-.9912381-2.55314286-1.7051428-.71390476-.7139048-1.28228572-1.5649524-1.70514286-2.5531429-.42285715-.9881905-.63428572-2.024-.63428572-3.1074286 0-1.08342856.21142857-2.11923808.63428572-3.10742856.42285714-.98819048.9912381-1.8392381 1.70514286-2.55314286s1.56495238-1.28228572 2.55314286-1.70514286c.98819048-.42285715 2.024-.63428572 3.10742856-.63428572 1.0834286 0 2.1192381.21142857 3.1074286.63428572.9881905.42285714 1.8392381.9912381 2.5531429 1.70514286.7139047.71390476 1.2822857 1.56495238 1.7051428 2.55314286.4228572.98819048.6342857 2.024.6342857 3.10742856z" fill="#d3d3d7"/></svg>