<svg height="20" viewBox="0 0 20 20" width="20" xmlns="http://www.w3.org/2000/svg"><path d="m9.99899794 3.64110017c-2.12937866-.00729431-4.22632571.52990516-6.09766908 1.56211126 1.37715331-1.24969616 3.78441154-1.96953857 3.78441154-1.96953857l-.22752142-.23113682c-2.25974376.04064808-4.3054676 1.63017358-4.3054676 1.63017358-1.36680306 2.83058201-2.10186588 5.93271238-2.15275138 9.08509498 1.11698895 1.455015 2.83727102 2.2985927 4.65351807 2.2819537l.95011554-1.2227463c-1.08878199-.3001429-2.048402-.9595842-2.72781345-1.8745264 3.76389305 2.3183447 8.48446664 2.3183447 12.24835964 0-.6794069.9149389-1.6390203 1.57438-2.7277958 1.8745264l.9500979 1.2227463c1.816244.0166433 3.5365256-.8269275 4.6535181-2.2819359-.0505111-3.1532458-.7855774-6.25628836-2.1527338-9.08764882 0 0-2.0457063-1.5895255-4.3054852-1.63017358l-.2275214.23113682s2.406766.71984241 3.7839369 1.96953857c-1.8713486-1.032209-3.9683021-1.56940857-6.0976867-1.56211126m-2.76932 5.15164353c.43379384.01579588.84332732.20728187 1.13727219.53175553.29394486.32447366.4478551.75495001.42740786 1.19543051.05177615.5985164-.23327539 1.1754942-.73660686 1.4909789-.50333146.3154846-1.13880359.3154846-1.64213506 0-.50333147-.3154847-.788383-.8924625-.73660686-1.4909789-.02103107-.4381684.13072493-.86678043.42167232-1.19095015.2909474-.32416972.69708569-.5171561 1.12850417-.53623589m5.57612074 0c.7007398-.06498581 1.3688121.3139702 1.6820008.95409489.3131888.64012465.2071699 1.40994625-.2669231 1.93817425-.4740929.528228-1.2188884.7063726-1.8751663.4485133s-1.0892489-.8987621-1.0900878-1.6135964c-.0379047-.91071501.6545038-1.68194253 1.5506687-1.72718604z" fill="#d3d3d7"/></svg>