<svg height="20" viewBox="0 0 20 20" width="20" xmlns="http://www.w3.org/2000/svg"><path d="m17.4228296 6.36579146c0 6.05384724-4.210611 10.41316384-10.403537 10.60448174-2.61897106.191318-4.41318328-.5602883-6.0192926-1.6945306 1.79421222.191318 4.21061093-.3689703 5.39710611-1.5168782-1.79421222 0-2.80707396-.9565898-3.40032154-2.2548189h1.60610932c-1.60610932-.5739539-2.82154341-1.70819615-2.82154341-3.59404471.39067524.19131797.79581994.36897037 1.60610933.36897037-1.40353698-.75160631-2.19935692-3.21140878-1.20096463-4.72828697 1.79421222 1.88584856 3.99356913 3.59404472 7.62540193 3.77169712-1.01286174-3.77169712 4.21061089-5.68487682 6.40996789-3.21140878 1.0128617-.19131797 1.6061093-.56028834 2.3874598-.95658985-.2025724.95658985-.79582 1.51687819-1.6061094 1.88584856.79582 0 1.403537-.19131797 1.9967846-.56028834-.1881029.75160631-.9839228 1.51687819-1.5771704 1.88584856z" fill="#d3d3d7"/></svg>