<svg height="20" viewBox="0 0 20 20" width="20" xmlns="http://www.w3.org/2000/svg"><path d="m3.51591666 6.1518499c.02119389-.20106527-.05854892-.39979447-.214625-.53487274l-1.58666666-1.84203621v-.27494095h4.927875l3.8094167 8.0469693 3.349-8.0469693h4.6990833v.27494095l-1.357875 1.25326686c-.1169756.08600156-.1750267.22722602-.150875.36704278v9.21018101c-.023874.1395918.0341481.2804832.150875.3663606l1.3245833 1.2532668v.274941h-6.6654166v-.274941l1.3720416-1.2839674c.1345834-.1296248.1345834-.16783.1345834-.3670428v-7.443873l-3.8179167 9.3384414h-.51495834l-4.44479166-9.3384414v6.2588297c-.03683334.263343.05383334.5280504.24579166.7183941l1.785 2.0876411v.2742587h-5.06104166v-.274941l1.785-2.087641c.19125-.1896615.27625-.4570979.23091666-.7177119z" fill="#d3d3d7"/></svg>