<svg height="36" viewBox="0 0 36 36" width="36" xmlns="http://www.w3.org/2000/svg"><g fill="none" fill-rule="evenodd"><circle cx="18" cy="18" fill="#323045" r="18"/><path d="m17.9988866 11.6904156c-2.3659763-.0078554-4.6959175.5706671-6.7751879 1.6822736 1.5301704-1.3458266 4.2049017-2.1210415 4.2049017-2.1210415l-.2528015-.2489166c-2.5108264.0437749-4.7838529 1.7555716-4.7838529 1.7555716-1.51867009 3.0483191-2.33540656 6.3890749-2.391946 9.7839484 1.24109883 1.5669393 3.1525234 2.4754076 5.1705756 2.4574886l1.055684-1.3168037c-1.2097578-.3232308-2.2760023-1.0333984-3.0309039-2.0187207 4.1821034 2.4966789 9.4271852 2.4966789 13.6092886 0-.7548966.9853188-1.8211337 1.6954861-3.0308843 2.0187207l1.0556644 1.3168037c2.0180489.0179236 3.9294728-.8905373 5.1705756-2.4574694-.0561235-3.3958032-.8728638-6.7375413-2.3919264-9.7866988 0 0-2.273007-1.7117966-4.7838725-1.7555715l-.2528015.2489166s2.6741844.7752149 4.2043743 2.1210415c-2.0792763-1.1116097-4.4092245-1.6901323-6.7752074-1.6822737m-3.0770223 5.5479239c.4819932.0170109.9370304.2232266 1.2636358.5726597.3266054.3494332.4976168.8130232.4748976 1.2873867.0575291.6445562-.2591949 1.2659169-.8184521 1.6056696-.5592571.3397527-1.2653373.3397527-1.8245945 0s-.8759811-.9611134-.818452-1.6056696c-.0233679-.4718736.1452499-.9334558.4685248-1.2825616.3232749-.3491059.7745396-.5569374 1.2538935-.5774848m6.1956897 0c.7785998-.0699848 1.5209023.3381217 1.8688898 1.0274867.3479875.6893651.2301887 1.5184037-.2965812 2.0872646-.5267699.568861-1.3543204.760709-2.0835181.4830144-.7291978-.2776947-1.2102766-.9678977-1.2112088-1.7377193-.0421163-.98077.7272266-1.8113227 1.7229653-1.8600464z" fill="#b3b2ba" fill-rule="nonzero"/></g></svg>