<svg height="60" viewBox="0 0 60 60" width="60" xmlns="http://www.w3.org/2000/svg"><path d="m8.98150291 37.4410913c2.90899919-1.6697622 6.62817179-.678971 8.30959259 2.2164303 1.302224 2.2425457.9996683 4.9687127-.5517994 6.8628078 3.5651851 3.3037933 8.2537404 5.1796706 13.2443666 5.1796706 2.2273855 0 4.4018489-.3718525 6.4574938-1.0910592l.3980254-.1441594.39459-.1527498 1.2071346-.4825205.965041 2.4142692-1.2071346.4825205c-.297044.1187356-.5967832.2310246-.8990315.3367719-2.3307161.8154456-4.7953937 1.2369273-7.3161187 1.2369273-5.7538889 0-11.1604387-2.2045997-15.2291602-6.0743221l-.0830277-.0813328c-2.8434743 1.3722515-6.31189319.3447535-7.91888816-2.4225238l-.1106717-.1989487c-1.52684415-2.8684154-.50758119-6.447421 2.33958797-8.0817813zm32.55716429-23.7767202 1.0670517.7425635c5.8564551 4.0755193 9.4184732 10.7265332 9.4184732 17.9723757 0 1.6401077-.1813452 3.2573721-.537213 4.8306314l-.1138347.4728816c2.6117907 1.7678547 3.4485743 5.2716449 1.8416103 8.03898l-.1177894.1944567c-1.7322663 2.7446063-5.3489177 3.6537861-8.1918164 2.0219661-2.9133695-1.6723608-3.9128379-5.3808755-2.2289199-8.2807322 1.3033376-2.2443432 3.8310597-3.3443123 6.2567644-2.9478214l-.1065854.4440296c.3956119-1.5471446.5977841-3.1469843.5977841-4.7743918 0-6.251705-3.0082147-11.9988988-7.9833756-15.6106507l-.3202247-.2276215-1.0670517-.7425636zm8.1528016 26.0316366c-1.6695126-.9582983-3.804821-.3894501-4.7668404 1.2671443-.9594238 1.6522134-.3901889 3.7643522 1.2748789 4.7201506 1.6695125.9582983 3.8048209.3894501 4.7668383-1.267163l.0908562-.1666809c.8294031-1.6250382.2438323-3.6295122-1.365733-4.553451zm-34.6487728 1.2671721c-.962027-1.6566076-3.0973354-2.2254558-4.7668348-1.2671651-1.66508084.9558061-2.23431578 3.0679449-1.27489191 4.7201582l.10005399.1620005c1.00380172 1.5308203 3.05292362 2.0314988 4.66677322 1.1051514 1.6650809-.955806 2.2343158-3.0679448 1.2748995-4.720145zm15.5303914-19.9631798c3.6403011 1.8592108 6.9492719 3.2060122 9.9269126 4.040404v10.965588c0 1.8210952-.9512423 3.5099124-2.508639 4.4537892l-7.491361 4.5402188-7.491361-4.5402188c-1.5573967-.9438768-2.508639-2.632694-2.508639-4.4537892v-10.965588c3.3603917-.996633 6.7180875-2.3434343 10.0730874-4.040404zm-.0080874 2.679-.6501969.3130331c-2.032762.9570772-4.0689393 1.7914164-6.1084081 2.5026763l-.906395.3062906v9.204992c0 .9164078.4467701 1.7706887 1.1890379 2.2942765l.1635252.1070379 6.2474369 3.7856936 6.2474369-3.7856936c.78371-.4749757 1.2827274-1.2998278 1.3457799-2.2059901l.0067832-.1953243v-9.189992l-.0484096-.0153914c-2.2412392-.7408037-4.6302402-1.7294843-7.1698975-2.9649057zm2.6607189 5.7834241 1.6921321 1.7019661-5.5655539 5.5333959-3.2145908-3.1960167 1.6921321-1.7019662 1.5221616 1.5131968zm-3.2420562-23.7624241c3.3596764 0 6.086276 2.71084512 6.086276 6.0586207 0 3.3477756-2.7265996 6.0586207-6.086276 6.0586207-2.6025081 0-4.8251367-1.6266493-5.6947769-3.9159531-7.3043293 2.2187654-12.6862375 8.5536981-13.6056168 16.1453407l-.0417852.3761289-.1307746 1.2934056-2.58681114-.261549.13077452-1.2934056c.8956798-8.8585852 7.12706022-16.2723447 15.61961162-18.7909088l.2401806-.0690738c.2349109-3.13385723 2.863946-5.6012263 6.0691979-5.6012263zm0 2.6c-1.9270981 0-3.4862761 1.55016898-3.4862761 3.4586207 0 1.9084517 1.559178 3.4586207 3.4862761 3.4586207 1.927098 0 3.486276-1.550169 3.486276-3.4586207 0-1.90845172-1.559178-3.4586207-3.486276-3.4586207z" fill="#dfa524"/></svg>