<svg height="60" viewBox="0 0 60 60" width="60" xmlns="http://www.w3.org/2000/svg"><path d="m30 6.2c13.144377 0 23.8 10.655623 23.8 23.8s-10.655623 23.8-23.8 23.8-23.8-10.655623-23.8-23.8c0-2.6877733.44618565-5.3158698 1.30899143-7.8029846l.19125302-.5307657.45525366-1.2176798 2.43535959.9105073-.4552536 1.2176798c-.87957156 2.3526148-1.3356041 4.8555716-1.3356041 7.423243 0 5.4720008 2.0731572 10.4597898 5.4768693 14.2207648l.0902133-.014053.1329174-.0067118h31c.07618 0 .1508295.0065526.2234157.0191249 3.4034271-3.7593351 5.4765843-8.7471241 5.4765843-14.2191249 0-11.7084367-9.4915633-21.2-21.2-21.2-4.3258872 0-8.4534578 1.2973249-11.9428734 3.6814221l-.3850644.2693613-1.0569716.7568428-1.5136855-2.1139433 1.0569716-.7568427c4.0068716-2.86911378 8.8080547-4.4368402 13.8416233-4.4368402zm12.9316807 40.6004743h-25.8633614c3.5787543 2.7587285 8.0636032 4.3995257 12.9316807 4.3995257s9.3529264-1.6407972 12.9316807-4.3995257zm-30.2263237-32.5139519 13.472643 13.4724776 4.0959431-4.0946352 9.6750569 9.6746352.0009996-8.460429h2.6l-.0009996 11.060429.275245.2756667-.275245.2743333.0009996 1.4359996-1.4359996-.0009996-.1282326.1291443-.1297674-.1291443-11.352429.0009996v-2.6l8.752429-.0009996-7.983-7.983-4.0944287 4.0956919-15.3116919-15.3116919z" fill="#dfa524"/></svg>