<svg height="28" viewBox="0 0 28 28" width="28" xmlns="http://www.w3.org/2000/svg"><path d="m24 4c1.1045695 0 2 .8954305 2 2v12.9615385c0 1.1045695-.8954305 2-2 2l-6.8-.0005385v2.4231538l2.3923077.0004616c.4460761 0 .8076923.3616161.8076923.8076923 0 .4460761-.3616162.8076923-.8076923.8076923h-11.18461539c-.44607615 0-.80769231-.3616162-.80769231-.8076923 0-.4460762.36161616-.8076923.80769231-.8076923l2.39230769-.0004616v-2.4231538l-6.8.0005385c-1.1045695 0-2-.8954305-2-2v-12.9615385c0-1.1045695.8954305-2 2-2zm.4 1.61538462h-20.8v12.11538458h20.8z" fill="#fff" fill-rule="evenodd"/></svg>