<svg height="60" viewBox="0 0 60 60" width="60" xmlns="http://www.w3.org/2000/svg"><path d="m51 11c1.6568542 0 3 1.3431458 3 3v26c0 1.6568542-1.3431458 3-3 3h-15.7v4.4h5.7v2.6h-22v-2.6h5.7v-4.4h-15.7c-1.65685425 0-3-1.3431458-3-3v-26c0-1.6568542 1.34314575-3 3-3zm-18.3 32.3h-5.4v3.9h5.4zm18.3-29.7h-42c-.19329966 0-.35457492.1371128-.39187342.319386l-.00812658.080614v26c0 .1932997.1371128.3545749.31938605.3918734l.08061395.0081266h42c.1932997 0 .3545749-.1371128.3918734-.319386l.0081266-.080614v-26c0-.1932997-.1371128-.3545749-.319386-.3918734zm-32.5571429 17.9744681v5.9574468h-2.6v-5.9574468zm8.5714286-7.6595745v13.6170213h-2.6v-13.6170213zm8.5714286-5.106383v18.7234043h-2.6v-18.7234043zm8.5714286 7.6595745v11.0638298h-2.6v-11.0638298z" fill="#dfa524"/></svg>