<svg height="14" viewBox="0 0 20 14" width="20" xmlns="http://www.w3.org/2000/svg"><path d="m139.945441 192.968714c-.103396-.532228-.425045-.851856-.963527-.936331-.011492 0-.021549-.011268-.031591-.011268-.010058 0-.020115-.009862-.031591-.009862l-.020115-.011253h-17.064902c-.258466 0-.496849.032368-.725144.095743l-.031606.011268c-.64226.206763-1.076578.794466-1.076965 1.457307v10.444725c0 .415371.134972.830741.383396 1.160215.021549.032384.05169.064767.083297.107012l.010042.011268.021534.021115c.393453.436486.963526.691347 1.565206.691347h16.183222c.818498 0 1.535035-.574474 1.700178-1.36297l.011477-.030977v-.011268c.020114-.116873.041648-.233731.041648-.340743v-10.985408c-.021534-.08449-.031591-.180233-.053125-.298513zm-13.42189 5.920765-1.950038 1.799456c-1.120032 1.032075-2.240079 2.055709-3.361561 3.09766v-9.335224l5.311599 4.439515zm6.980186-.02113c1.763345-1.469966 3.506606-2.928695 5.269935-4.39727v9.14516l-2.209923-1.990942-3.058593-2.756963zm-8.391726 2.947012 2.334853-2.140228c.393453.330896.776865.650508 1.16168.970136.216849.180233.435102.361857.643328.54209l.280001.235138c.301564.254861.580146.254861.890302 0 .70648-.585742 1.41154-1.182737 2.138134-1.778341l1.286626 1.160216c1.473271 1.330587 2.935082 2.651312 4.418427 3.981899h-16.369899c1.079833-.999691 2.148191-1.979689 3.216548-2.97094zm4.875063-1.596716c-1.824909-1.523214-3.64714-3.049509-5.466686-4.57888l-2.8719-2.406343c1.2536-.040838 6.751876-.0718 11.408686-.0718 2.706772 0 4.595047.009847 5.351813.030977l-8.421929 7.027452z" fill="#b3b2ba" transform="translate(-120 -192)"/></svg>