<svg height="28" viewBox="0 0 28 28" width="28" xmlns="http://www.w3.org/2000/svg"><path d="m24.6844766 2.06767195c-.0470617-.04707612-.105889-.06767195-.1676575-.06767195-.0617686 0-.1205958.02353807-.1676576.06767195l-2.2383752 2.23905846c-.9730676-.65949837-2.1218799-1.01111559-3.2972648-1.00919455-1.5059765 0-3.011953.57374034-4.1620248 1.7241633l-2.9972462 2.99816109c-.0911431.09207449-.0911431.2404007 0 .33247519l7.9916759 7.99411546c.0470618.0470761.105889.0676719.1676576.0676719.0588272 0 .1205957-.023538.1676575-.0676719l2.9972461-2.9981611c2.0265973-2.0301581 2.2648475-5.16954762.7147506-7.45862447l2.2383752-2.23905848c.0911821-.09415227.0911821-.24420742 0-.33541742zm-9.0505656 12.95476275-1.958946 1.959544-2.6560483-2.6568592 1.9618873-1.9624862c.0911822-.09121.0911822-.2412652 0-.3324752l-1.0706551-1.0709819c-.0920464-.0911709-.2403274-.0911709-.3323738 0l-1.96188727 1.9624862-1.26478493-1.265171c-.04436719-.0444154-.10489938-.0688481-.16765754-.067672-.0588272 0-.12059576.0235381-.16765754.067672l-2.99430478 2.9981611c-2.02659724 2.0272158-2.26484743 5.1695476-.71475056 7.4586244l-2.23837517 2.2390585c-.09114308.0920745-.09114308.2404007 0 .3324752l1.24713677 1.2475174c.04706175.0470762.10588897.067672.16765752.067672.06176854 0 .12059576-.0235381.16765754-.067672l2.23837519-2.2390584c.99123843.6737771 2.14425167 1.0091945 3.29726488 1.0091945 1.50597649 0 3.01195289-.5737403 4.16202479-1.7241633l2.9972462-2.9981611c.0911821-.09121.0911821-.2412651 0-.3324751l-1.2647849-1.265171 1.9618873-1.9624862c.0911821-.09121.0911821-.2412652 0-.3324752l-1.0765379-1.0650975c-.0920464-.0911709-.2403273-.0911709-.3323737 0z" fill="#fff"/></svg>