<svg height="36" viewBox="0 0 36 36" width="36" xmlns="http://www.w3.org/2000/svg"><g fill="none" fill-rule="evenodd"><circle cx="18" cy="18" fill="#323045" r="18"/><path d="m21.3268315 22.5327538c.1784015.1784665.1784015.351222 0 .5182666-.6907707.691022-1.8004281 1.0365331-3.3289724 1.0365331-1.5285442 0-2.6382017-.3455111-3.3289724-1.0365331-.1784015-.1670446-.1784015-.3398001 0-.5182666.067079-.0671034.1505709-.1006551.2504757-.1006551.0999049 0 .1833968.0335517.2504758.1006551.5352045.5468212 1.4771646.8202318 2.8258801.8202318 1.3372978 0 2.2792578-.2734106 2.8258801-.8202318.0670789-.0671034.1505708-.1006551.2504757-.1006551.0999048 0 .1833968.0335517.2504757.1006551zm-5.135823-3.0282187c0 .4126144-.144862.7638364-.4345861 1.0536659s-.6408183.4347443-1.0532826.4347443-.7664129-.1449148-1.0618458-.4347443c-.295433-.2898295-.4431494-.6410515-.4431494-1.0536659 0-.4240363.1477164-.7809692.4431494-1.0707987.2954329-.2898295.6493815-.4347443 1.0618458-.4347443s.7635585.1477703 1.0532826.4433107.4345861.6496178.4345861 1.0622323zm6.6065652 0c0 .4126144-.1477165.7638364-.4431494 1.0536659s-.6493815.4347443-1.0618458.4347443c-.4124644 0-.7635586-.1449148-1.0532826-.4347443-.2897241-.2898295-.4345861-.6410515-.4345861-1.0536659s.144862-.7666919.4345861-1.0622323c.289724-.2955404.6408182-.4433106 1.0532826-.4433106.4124643 0 .7664129.1449147 1.0618458.4347442s.4431494.6467624.4431494 1.0707987zm4.1981446-2.0066768c0-.5468212-.1948145-1.0151171-.5844434-1.4048878-.3896289-.3897708-.8634634-.5846561-1.4215033-.5846561-.55804 0-1.0375833.2005963-1.4386299.6017889-1.4500476-1.0036954-3.1841104-1.5390947-5.2021884-1.6061981l1.0532826-4.73507179 3.346099.75384229c0 .4126144.144862.7638364.4345861 1.0536659s.6408183.4347443 1.0532826.4347443.7664129-.1477702 1.0618458-.4433107c.2954329-.2955404.4431494-.6496178.4431494-1.0622323 0-.4126144-.1477165-.76669182-.4431494-1.06223225s-.6493815-.44331065-1.0618458-.44331065c-.6022836 0-1.0482874.27912152-1.3380114.83736457l-3.6971932-.82023179c-.2112274-.05568152-.3503806.0335517-.4174595.26769967l-1.1539011 5.22121445c-2.0066603.0785252-3.7293054.6196355-5.1679353 1.6233308-.3896289-.4126144-.874881-.6189217-1.4557564-.6189217-.5580399 0-1.03187439.1948854-1.42150331.5846561-.38962893.3897708-.58444339.8580667-.58444339 1.4048879 0 .3897707.10347288.7467036.31041864 1.0707987s.48311132.5696649.82849666.7367095c-.067079.3012514-.1006184.6139246-.1006184.9380196 0 1.5833544.780685 2.9382717 2.3420552 4.0647519 1.5613701 1.1264802 3.4402949 1.6897203 5.6367745 1.6897203 2.2078972 0 4.0925309-.5632401 5.653901-1.6897203s2.3420552-2.4813975 2.3420552-4.0647519c0-.3569328-.0392483-.6746031-.117745-.9530108.3339676-.1670446.6015699-.4097589.8028068-.7281431.2012369-.3183841.3018554-.6724615.3018554-1.0622323z" fill="#b3b2ba" fill-rule="nonzero"/></g></svg>