<svg height="36" viewBox="0 0 36 36" width="36" xmlns="http://www.w3.org/2000/svg"><g fill="none" fill-rule="evenodd"><circle cx="18" cy="18" fill="#323045" r="18"/><path d="m15.3340673 24.1667797.2825933-3.9245094 7.2061278-6.4280759c.3532416-.2706559-.0706483-.4059838-.4945382-.2029919l-8.9016873 5.6161084-3.81500888-1.2179512c-.84777975-.2029919-.84777975-.8119675.21194493-1.2179512l15.04809055-5.6837724c.7064831-.3383198 1.3423179.1353279 1.0597246 1.2179512l-2.5433392 11.8411924c-.2119449.8119675-.7064831 1.0149594-1.4129662.6766396l-3.8856572-2.8418862-1.8368561 1.7592629c-.3532416.2029919-.4945382.4059837-.9184281.4059837z" fill="#b3b2ba" fill-rule="nonzero"/><g transform="translate(4 24)"><rect fill="#4c4a63" height="12" rx="6" width="28"/><text fill="#b3b2ba" font-family="PingFangSC-Regular, PingFang SC" font-size="10"><tspan x="6" y="12">CN</tspan></text></g></g></svg>