<svg height="36" viewBox="0 0 36 36" width="36" xmlns="http://www.w3.org/2000/svg"><g fill="none" fill-rule="evenodd"><circle cx="18" cy="18" fill="#323045" r="18"/><path d="m25.4228296 14.3657915c0 6.0538472-4.210611 10.4131638-10.403537 10.6044817-2.6189711.191318-4.4131833-.5602883-6.0192926-1.6945306 1.7942122.191318 4.2106109-.3689703 5.3971061-1.5168782-1.7942122 0-2.8070739-.9565898-3.4003215-2.2548189h1.6061093c-1.6061093-.5739539-2.82154342-1.7081961-2.82154342-3.5940447.39067522.191318.79581992.3689704 1.60610932.3689704-1.40353697-.7516063-2.19935691-3.2114088-1.2009646-4.728287 1.7942122 1.8858486 3.9935691 3.5940447 7.6254019 3.7716971-1.0128617-3.7716971 4.2106109-5.68487681 6.4099679-3.2114088 1.0128617-.1913179 1.6061093-.5602883 2.3874598-.9565898-.2025724.9565898-.79582 1.5168782-1.6061094 1.8858485.79582 0 1.403537-.1913179 1.9967846-.5602883-.1881029.7516063-.9839228 1.5168782-1.5771704 1.8858486z" fill="#b3b2ba" fill-rule="nonzero"/></g></svg>